<svg width="135" height="39" viewBox="0 0 135 39" fill="none" xmlns="http://www.w3.org/2000/svg">
<path d="M0.299988 8.5H7.52999V19.48C7.84999 18.56 8.33999 17.82 8.99999 17.26C9.65999 16.7 10.66 16.42 12 16.42C15.1 16.42 16.65 18.09 16.65 21.43V30.46H18.33V31H9.83999V30.46H11.07V20.71C11.07 19.51 10.99 18.74 10.83 18.4C10.67 18.04 10.38 17.86 9.95999 17.86C9.31999 17.86 8.74999 18.28 8.24999 19.12C7.76999 19.96 7.52999 20.98 7.52999 22.18V30.46H8.81999V31H0.299988V30.46H1.94999V9.04H0.299988V8.5Z" fill="#C1A130"/>
<path d="M35.7504 31H28.9104L28.5804 28.81C28.2604 29.61 27.7804 30.23 27.1404 30.67C26.5204 31.09 25.5904 31.3 24.3504 31.3C21.2504 31.3 19.7004 29.63 19.7004 26.29V17.26H18.0204V16.72H25.2804V27.01C25.2804 28.21 25.3604 29 25.5204 29.38C25.7004 29.76 26.0404 29.95 26.5404 29.95C27.0604 29.95 27.5204 29.64 27.9204 29.02C28.3204 28.4 28.5204 27.54 28.5204 26.44V17.26H27.1404V16.72H34.1004V30.46H35.7504V31Z" fill="#C1A130"/>
<path d="M36.3644 16.72H43.5944V19.48C44.2544 17.44 45.7044 16.42 47.9444 16.42C50.2044 16.42 51.5744 17.5 52.0544 19.66C52.7544 17.5 54.2244 16.42 56.4644 16.42C59.4044 16.42 60.8744 18.09 60.8744 21.43V30.46H62.5544V31H54.2444V30.46H55.2944V20.71C55.2944 19.19 55.1644 18.3 54.9044 18.04C54.7844 17.92 54.6244 17.86 54.4244 17.86C53.8444 17.86 53.3344 18.25 52.8944 19.03C52.4544 19.81 52.2344 20.8 52.2344 22V30.46H53.3144V31H45.6044V30.46H46.6544V20.71C46.6544 19.19 46.5244 18.3 46.2644 18.04C46.1444 17.92 45.9844 17.86 45.7844 17.86C45.2244 17.86 44.7144 18.29 44.2544 19.15C43.8144 19.99 43.5944 21 43.5944 22.18V30.46H44.6744V31H36.3644V30.46H38.0144V17.26H36.3644V16.72Z" fill="#C1A130"/>
<path d="M70.1953 23.95H71.0653V21.64C71.0653 19.74 70.9553 18.47 70.7353 17.83C70.5353 17.17 70.1353 16.84 69.5353 16.84C69.1753 16.84 68.8453 16.94 68.5453 17.14C68.2653 17.32 68.1253 17.58 68.1253 17.92C68.1253 18.24 68.1853 18.57 68.3053 18.91H69.0553C69.2153 19.33 69.2953 19.84 69.2953 20.44C69.2953 21.02 69.0453 21.53 68.5453 21.97C68.0453 22.39 67.4153 22.6 66.6553 22.6C64.9353 22.6 64.0753 21.77 64.0753 20.11C64.0753 17.65 66.1653 16.42 70.3453 16.42C72.7253 16.42 74.3653 16.83 75.2653 17.65C76.1853 18.45 76.6453 19.93 76.6453 22.09V28.18C76.6453 29.22 76.9353 29.74 77.5153 29.74C78.1953 29.74 78.5953 28.71 78.7153 26.65L79.1653 26.68C79.0853 28.44 78.7553 29.65 78.1753 30.31C77.5953 30.97 76.6453 31.3 75.3253 31.3C72.9253 31.3 71.5453 30.56 71.1853 29.08C70.9253 29.84 70.5353 30.4 70.0153 30.76C69.4953 31.12 68.7353 31.3 67.7353 31.3C64.7753 31.3 63.2953 30.09 63.2953 27.67C63.2953 26.25 63.8553 25.28 64.9753 24.76C66.1153 24.22 67.8553 23.95 70.1953 23.95ZM68.9953 27.64C68.9953 28.68 69.0453 29.35 69.1453 29.65C69.2653 29.95 69.4753 30.1 69.7753 30.1C70.0953 30.1 70.3853 29.85 70.6453 29.35C70.9253 28.83 71.0653 28.12 71.0653 27.22V24.43H70.8553C69.6153 24.43 68.9953 25.34 68.9953 27.16V27.64Z" fill="#C1A130"/>
<path d="M79.5201 16.72H86.7501V19.48C87.0701 18.56 87.5602 17.82 88.2201 17.26C88.8801 16.7 89.8801 16.42 91.2201 16.42C94.3201 16.42 95.8701 18.09 95.8701 21.43V30.46H97.5501V31H89.0601V30.46H90.2901V20.71C90.2901 19.51 90.2101 18.74 90.0501 18.4C89.8901 18.04 89.6001 17.86 89.1801 17.86C88.5401 17.86 87.9701 18.28 87.4701 19.12C86.9901 19.96 86.7501 20.98 86.7501 22.18V30.46H88.0401V31H79.5201V30.46H81.1701V17.26H79.5201V16.72Z" fill="#C1A130"/>
<path d="M97.8265 16.72H105.176V30.46H106.856V31H97.9465V30.46H99.5965V17.26H97.8265V16.72Z" fill="#C1A130"/>
<path d="M108.968 26.71V17.26H107.318V16.72H108.968V12.85L114.548 11.47V16.72H118.448V17.26H114.548V27.37C114.548 28.31 114.638 29 114.818 29.44C115.018 29.88 115.418 30.1 116.018 30.1C116.618 30.1 117.138 29.8 117.578 29.2C118.038 28.6 118.338 27.78 118.478 26.74L118.988 26.8C118.828 28.18 118.388 29.28 117.668 30.1C116.948 30.9 115.758 31.3 114.098 31.3C112.438 31.3 111.168 30.97 110.288 30.31C109.408 29.65 108.968 28.45 108.968 26.71Z" fill="#C1A130"/>
<path d="M118.832 17.26V16.72H127.532V17.26H125.912L129.182 27.22L132.662 17.26H130.652V16.72H134.882V17.26H133.382L127.772 33.43C127.112 35.31 126.372 36.62 125.552 37.36C124.732 38.12 123.732 38.5 122.552 38.5C121.372 38.5 120.442 38.23 119.762 37.69C119.082 37.15 118.742 36.46 118.742 35.62C118.742 34.78 118.962 34.14 119.402 33.7C119.842 33.26 120.422 33.04 121.142 33.04C122.802 33.04 123.632 33.73 123.632 35.11C123.632 35.41 123.572 35.77 123.452 36.19H122.402C122.242 36.65 122.222 37.03 122.342 37.33C122.462 37.63 122.732 37.78 123.152 37.78C123.972 37.78 124.702 37.37 125.342 36.55C125.982 35.75 126.592 34.52 127.172 32.86L127.832 31H125.192L120.062 17.26H118.832Z" fill="#C1A130"/>
<path fill-rule="evenodd" clip-rule="evenodd" d="M101.216 1.26335L101.814 1.86918L102.411 1.26506C103.476 0.179554 105.033 -0.24712 106.494 0.146585C107.955 0.54029 109.095 1.6942 109.484 3.17142C109.873 4.64864 109.451 6.22338 108.377 7.29942L101.814 13.9345L95.2485 7.29601C94.175 6.21966 93.7531 4.6448 94.1424 3.16769C94.5318 1.69058 95.6729 0.536998 97.1338 0.143711C98.5947 -0.249577 100.152 0.177543 101.216 1.26335Z" fill="#77C377"/>
</svg>
